<svg xmlns="http://www.w3.org/2000/svg" width="50.209" height="65.545" viewBox="0 0 50.209 65.545">
  <g id="Group_177602" data-name="Group 177602" transform="translate(-256.548 -16.282)">
    <rect id="Rectangle_162773" data-name="Rectangle 162773" width="11.005" height="14.322" transform="translate(288.749 67.506)" fill="#28324e"/>
    <path id="Path_39106" data-name="Path 39106" d="M294.028,74.6a.6.6,0,1,0,.609.6A.605.605,0,0,0,294.028,74.6Z" transform="translate(-3.807 -6.021)" fill="#fff"/>
    <path id="Path_39107" data-name="Path 39107" d="M294.041,76.7a.605.605,0,1,0,.609.6A.6.6,0,0,0,294.041,76.7Z" transform="translate(-3.809 -6.237)" fill="#fff"/>
    <path id="Path_39108" data-name="Path 39108" d="M294.055,78.828a.605.605,0,1,0,.609.6A.606.606,0,0,0,294.055,78.828Z" transform="translate(-3.81 -6.457)" fill="#fff"/>
    <g id="Group_177253" data-name="Group 177253" transform="translate(290.242 37.022)">
      <path id="Path_39109" data-name="Path 39109" d="M305.118,44.046l-.029.012a1.421,1.421,0,0,0-.784,1.967l2.614,5.518a1.7,1.7,0,0,0,2.117.849l.03-.012a1.423,1.423,0,0,0,.784-1.967l-2.614-5.518A1.7,1.7,0,0,0,305.118,44.046Z" transform="translate(-295.157 -39.877)" fill="#fac48e"/>
      <path id="Path_39110" data-name="Path 39110" d="M304.709,40.708l-.03.012a1.422,1.422,0,0,0-.784,1.967l2.614,5.518a1.7,1.7,0,0,0,2.117.848l.03-.011a1.422,1.422,0,0,0,.784-1.967l-2.614-5.519A1.7,1.7,0,0,0,304.709,40.708Z" transform="translate(-295.115 -39.532)" fill="#fac48e"/>
      <path id="Path_39111" data-name="Path 39111" d="M308.325,46.76l-.032,0a1.476,1.476,0,0,0-1.667,1.359l-.311,5.958a1.627,1.627,0,0,0,1.554,1.606l.032,0a1.475,1.475,0,0,0,1.666-1.359l.282-5.909A1.645,1.645,0,0,0,308.325,46.76Z" transform="translate(-295.38 -40.167)" fill="#fac48e"/>
      <path id="Path_39112" data-name="Path 39112" d="M306.677,39.454l-.033.007a1.549,1.549,0,0,0-1.177,1.979l1.909,6.273a1.843,1.843,0,0,0,2.15,1.222l.033-.007a1.549,1.549,0,0,0,1.177-1.979l-1.909-6.273A1.842,1.842,0,0,0,306.677,39.454Z" transform="translate(-295.285 -39.409)" fill="#fac48e"/>
      <path id="Path_39113" data-name="Path 39113" d="M309.468,46.452l-.034-.008a1.64,1.64,0,0,0-2.031,1.2l-1.332,6.3a1.73,1.73,0,0,0,1.415,1.945l.034.008a1.64,1.64,0,0,0,2.031-1.2l1.29-6.255A1.744,1.744,0,0,0,309.468,46.452Z" transform="translate(-295.352 -40.131)" fill="#fac48e"/>
      <path id="Path_39114" data-name="Path 39114" d="M294.121,66.376l.953-3.951a7.5,7.5,0,0,1,1.214-2.638l1.5-2.082a2.682,2.682,0,0,0,.409-.848l1.561-5.594a1.655,1.655,0,0,1,2.108-1.078l.034.01a1.728,1.728,0,0,1,1.25,2.061l-1.031,3.766L304.9,53.1l2.328-5.46-.595-6.029A1.574,1.574,0,0,1,308.2,39.9l.035,0a1.816,1.816,0,0,1,1.888,1.577s.525,7.183.517,7.2c0,0-1.011,4.735-1.466,6.178-.086.272-.272.622-.436.993a34.134,34.134,0,0,1-5.422,8.678L300.42,68.99Z" transform="translate(-294.121 -39.46)" fill="#ffcf9f"/>
    </g>
    <rect id="Rectangle_162774" data-name="Rectangle 162774" width="9.826" height="4.177" transform="translate(289.357 63.328)" fill="#ededed"/>
    <rect id="Rectangle_162775" data-name="Rectangle 162775" width="11.005" height="14.322" transform="translate(263.552 67.506)" fill="#28324e"/>
    <path id="Path_39115" data-name="Path 39115" d="M274.919,74.6a.6.6,0,1,1-.609.6A.6.6,0,0,1,274.919,74.6Z" transform="translate(-1.834 -6.021)" fill="#fff"/>
    <path id="Path_39116" data-name="Path 39116" d="M274.906,76.7a.605.605,0,1,1-.609.6A.6.6,0,0,1,274.906,76.7Z" transform="translate(-1.832 -6.237)" fill="#fff"/>
    <path id="Path_39117" data-name="Path 39117" d="M274.892,78.828a.605.605,0,1,1-.609.6A.605.605,0,0,1,274.892,78.828Z" transform="translate(-1.831 -6.457)" fill="#fff"/>
    <g id="Group_177254" data-name="Group 177254" transform="translate(256.548 37.022)">
      <path id="Path_39118" data-name="Path 39118" d="M263.3,44.046l.03.012a1.422,1.422,0,0,1,.784,1.967l-2.614,5.518a1.7,1.7,0,0,1-2.117.849l-.03-.012a1.422,1.422,0,0,1-.784-1.967l2.614-5.518A1.7,1.7,0,0,1,263.3,44.046Z" transform="translate(-256.741 -39.877)" fill="#fac48e"/>
      <path id="Path_39119" data-name="Path 39119" d="M263.705,40.708l.03.012a1.422,1.422,0,0,1,.784,1.967L261.9,48.2a1.7,1.7,0,0,1-2.117.848l-.03-.011a1.422,1.422,0,0,1-.784-1.967l2.614-5.519A1.7,1.7,0,0,1,263.705,40.708Z" transform="translate(-256.783 -39.532)" fill="#fac48e"/>
      <path id="Path_39120" data-name="Path 39120" d="M260.353,46.76l.032,0a1.475,1.475,0,0,1,1.666,1.359l.312,5.958a1.628,1.628,0,0,1-1.554,1.606l-.032,0a1.475,1.475,0,0,1-1.666-1.359l-.282-5.909A1.645,1.645,0,0,1,260.353,46.76Z" transform="translate(-256.783 -40.167)" fill="#fac48e"/>
      <path id="Path_39121" data-name="Path 39121" d="M261.786,39.454l.033.007A1.549,1.549,0,0,1,263,41.44l-1.909,6.273a1.843,1.843,0,0,1-2.15,1.222l-.034-.007a1.55,1.55,0,0,1-1.177-1.979l1.909-6.273A1.843,1.843,0,0,1,261.786,39.454Z" transform="translate(-256.662 -39.409)" fill="#fac48e"/>
      <path id="Path_39122" data-name="Path 39122" d="M259.061,46.452l.034-.008a1.64,1.64,0,0,1,2.031,1.2l1.331,6.3a1.729,1.729,0,0,1-1.414,1.945l-.034.008a1.64,1.64,0,0,1-2.031-1.2l-1.29-6.255A1.744,1.744,0,0,1,259.061,46.452Z" transform="translate(-256.662 -40.131)" fill="#fac48e"/>
      <path id="Path_39123" data-name="Path 39123" d="M273.064,66.376l-.953-3.951a7.5,7.5,0,0,0-1.214-2.638l-1.5-2.082a2.679,2.679,0,0,1-.408-.848l-1.561-5.594a1.656,1.656,0,0,0-2.109-1.078l-.033.01a1.727,1.727,0,0,0-1.25,2.061l1.031,3.766L262.286,53.1l-2.328-5.46.594-6.029a1.573,1.573,0,0,0-1.564-1.71l-.034,0a1.816,1.816,0,0,0-1.888,1.577s-.525,7.183-.517,7.2c0,0,1.012,4.735,1.467,6.178.085.272.272.622.436.993a34.134,34.134,0,0,0,5.422,8.678l2.892,4.467Z" transform="translate(-256.548 -39.46)" fill="#ffcf9f"/>
    </g>
    <rect id="Rectangle_162776" data-name="Rectangle 162776" width="9.826" height="4.177" transform="translate(264.123 63.328)" fill="#ededed"/>
    <g id="Group_177264" data-name="Group 177264" transform="translate(273.337 16.282)">
      <g id="Group_177255" data-name="Group 177255" transform="translate(4.444 37.895)">
        <path id="Path_39124" data-name="Path 39124" d="M288.066,64.78c0,4.707-3.921,10.813-3.921,10.813s-3.92-6.106-3.92-10.813,1.755-6.23,3.92-6.23S288.066,60.074,288.066,64.78Z" transform="translate(-280.226 -58.54)" fill="#ff9c14"/>
        <path id="Path_39125" data-name="Path 39125" d="M286.934,62.736c0,3.17-2.641,7.284-2.641,7.284s-2.641-4.113-2.641-7.284,1.183-4.2,2.641-4.2S286.934,59.566,286.934,62.736Z" transform="translate(-280.373 -58.539)" fill="#fec40c"/>
        <path id="Path_39126" data-name="Path 39126" d="M285.933,60.939a9.843,9.843,0,0,1-1.51,4.165,9.847,9.847,0,0,1-1.509-4.165c0-1.812.675-2.4,1.509-2.4S285.933,59.126,285.933,60.939Z" transform="translate(-280.504 -58.539)" fill="#fff"/>
      </g>
      <rect id="Rectangle_162777" data-name="Rectangle 162777" width="8.008" height="2.051" transform="translate(4.363 34.814)" fill="#706f6f"/>
      <path id="Path_39127" data-name="Path 39127" d="M289.949,32.077l-.542,19.681H278.391l-.542-19.681a19.6,19.6,0,0,1,2.71-10.4c.092-.167.2-.334.3-.5l3.044-4.9,3.045,4.9.3.5A19.574,19.574,0,0,1,289.949,32.077Z" transform="translate(-275.536 -16.282)" fill="#dadada"/>
      <ellipse id="Ellipse_770" data-name="Ellipse 770" cx="1.753" cy="7.693" rx="1.753" ry="7.693" transform="translate(6.614 26.106)" fill="#f35d4b"/>
      <g id="Group_177262" data-name="Group 177262" transform="translate(0 26.106)">
        <g id="Group_177258" data-name="Group 177258">
          <g id="Group_177256" data-name="Group 177256">
            <path id="Path_39128" data-name="Path 39128" d="M278.963,53.086c0,4.249-.057,7.693-1.078,7.693s-2.615-3.444-2.615-7.693,1.6-7.693,2.615-7.693S278.963,48.837,278.963,53.086Z" transform="translate(-275.27 -45.393)" fill="#f35d4b"/>
            <path id="Path_39129" data-name="Path 39129" d="M278.963,53.086c0,4.249-.057,7.693-1.078,7.693s-2.615-3.444-2.615-7.693,1.6-7.693,2.615-7.693S278.963,48.837,278.963,53.086Z" transform="translate(-275.27 -45.393)" fill="#f35d4b"/>
          </g>
          <g id="Group_177257" data-name="Group 177257" transform="translate(13.04)">
            <path id="Path_39130" data-name="Path 39130" d="M289.811,53.086c0,4.249.058,7.693,1.078,7.693s2.616-3.444,2.616-7.693-1.6-7.693-2.616-7.693S289.811,48.837,289.811,53.086Z" transform="translate(-289.811 -45.393)" fill="#f35d4b"/>
            <path id="Path_39131" data-name="Path 39131" d="M289.811,53.086c0,4.249.058,7.693,1.078,7.693s2.616-3.444,2.616-7.693-1.6-7.693-2.616-7.693S289.811,48.837,289.811,53.086Z" transform="translate(-289.811 -45.393)" fill="#f35d4b"/>
          </g>
        </g>
        <g id="Group_177261" data-name="Group 177261">
          <g id="Group_177259" data-name="Group 177259">
            <path id="Path_39132" data-name="Path 39132" d="M278.963,53.086c0,4.249-.057,7.693-1.078,7.693s-2.615-3.444-2.615-7.693,1.6-7.693,2.615-7.693S278.963,48.837,278.963,53.086Z" transform="translate(-275.27 -45.393)" fill="#ff715f"/>
          </g>
          <g id="Group_177260" data-name="Group 177260" transform="translate(13.04)">
            <path id="Path_39133" data-name="Path 39133" d="M289.811,53.086c0,4.249.058,7.693,1.078,7.693s2.616-3.444,2.616-7.693-1.6-7.693-2.616-7.693S289.811,48.837,289.811,53.086Z" transform="translate(-289.811 -45.393)" fill="#ff715f"/>
          </g>
        </g>
      </g>
      <g id="Group_177263" data-name="Group 177263" transform="translate(6.163 12.307)">
        <path id="Path_39134" data-name="Path 39134" d="M283.741,30.7v-.7h1.209v.7a2.04,2.04,0,0,1,1.585,2.3v.3h-1.4v-.39c0-.672-.268-.926-.739-.926s-.739.255-.739.926c0,1.934,2.888,2.028,2.888,4.715a2.064,2.064,0,0,1-1.6,2.311v.684h-1.209v-.684a2.053,2.053,0,0,1-1.6-2.311v-.645h1.4v.739c0,.672.3.914.766.914s.765-.242.765-.914c0-1.934-2.888-2.028-2.888-4.715A2.05,2.05,0,0,1,283.741,30.7Z" transform="translate(-282.143 -30.006)" fill="#00a683"/>
      </g>
      <path id="Path_39135" data-name="Path 39135" d="M287.56,21.678a26.993,26.993,0,0,1-3.344.208,27,27,0,0,1-3.344-.208c.092-.167.2-.334.3-.5l3.044-4.9,3.045,4.9Z" transform="translate(-275.848 -16.282)" fill="#f35d4b"/>
    </g>
  </g>
</svg>
