<svg xmlns="http://www.w3.org/2000/svg" width="24" height="24" viewBox="0 0 24 24">
  <g id="SvgjsG1014" transform="translate(0.189 0.189)">
    <g id="Layer_1" data-name="Layer 1" transform="translate(-0.189 -0.189)">
      <circle id="Ellipse_608" data-name="Ellipse 608" cx="12" cy="12" r="12" fill="#38a8e0"/>
      <path id="Path_12056" data-name="Path 12056" d="M41.959,38.795a5.315,5.315,0,0,1-1.527.418A2.666,2.666,0,0,0,41.6,37.741a5.323,5.323,0,0,1-1.688.644,2.66,2.66,0,0,0-4.53,2.425,7.548,7.548,0,0,1-5.48-2.777,2.662,2.662,0,0,0,.822,3.549,2.647,2.647,0,0,1-1.2-.333v.033a2.66,2.66,0,0,0,2.133,2.609,2.664,2.664,0,0,1-1.2.046,2.662,2.662,0,0,0,2.484,1.838,5.334,5.334,0,0,1-3.3,1.139A5.4,5.4,0,0,1,29,46.887a7.56,7.56,0,0,0,11.637-6.37v-.344A5.4,5.4,0,0,0,41.959,38.795Z" transform="translate(-23.48 -30.444)" fill="#fff"/>
    </g>
  </g>
</svg>
