<svg xmlns="http://www.w3.org/2000/svg" width="149.832" height="25.123" viewBox="-21288.301 -3866.861 149.832 25.123"><g data-name="Group 181828"><g data-name="Group 181812"><path d="M-21280.371-3849.027c-1.322.679-2.108-.107-3.965-2-2-2-3.965-3.322-3.965-3.322s2-1.321 3.965-3.322c1.857-1.857 2.643-2.643 3.965-2 1.179.607 2.643 2.643 4.643 3.322l1.322 2-1.322 2c-2 .679-3.464 2.75-4.643 3.322Z" fill="#01817d" fill-rule="evenodd" data-name="Path 63006"/><g data-name="Group 181811"><g data-name="Group 181807"><g data-name="Group 181805"><path d="m-21266.37-3854.206-.928.607c-.036-.035-.786-1.143-2.465-1.178-1.5 0-5.215-.393-7.358-3.715-2.214-3.358-1-6.644 1.322-8.144l.607.929c-1.5.964-3 3.536-1 6.608 1.857 2.857 5.143 3.179 6.43 3.214 2.285.036 3.357 1.608 3.392 1.68Z" fill="#01817d" fill-rule="evenodd" data-name="Path 63007"/></g><g data-name="Group 181806"><path d="M-21276.264-3864.736a1.679 1.679 0 1 1 0 .1z" fill="#01817d" fill-rule="evenodd" data-name="Ellipse 970"/><path d="M-21275.8-3866.493a2.203 2.203 0 0 0-.642 3.072 2.203 2.203 0 0 0 3.072.643 2.203 2.203 0 0 0 .642-3.072 2.203 2.203 0 0 0-3.071-.643Zm.608.929c.5-.322 1.214-.179 1.536.321.321.5.178 1.214-.322 1.536-.5.321-1.214.178-1.536-.322-.321-.535-.178-1.214.322-1.535Z" fill="#01817d" fill-rule="evenodd" data-name="Path 63008"/></g></g><g data-name="Group 181810"><g data-name="Group 181808"><path d="m-21266.37-3854.42-.928-.607c-.036.035-.786 1.143-2.465 1.178-1.5 0-5.215.393-7.358 3.715-2.214 3.358-1 6.644 1.322 8.144l.607-.929c-1.5-.964-3-3.536-1-6.608 1.857-2.857 5.143-3.179 6.43-3.214 2.285-.036 3.357-1.608 3.392-1.68Z" fill="#01817d" fill-rule="evenodd" data-name="Path 63009"/></g><g data-name="Group 181809"><path d="M-21276.264-3844.055a1.679 1.679 0 1 1 0 .1z" fill="#01817d" fill-rule="evenodd" data-name="Ellipse 971"/><path d="M-21272.727-3842.74a2.203 2.203 0 0 0-.643-3.072 2.203 2.203 0 0 0-3.072.643 2.203 2.203 0 0 0 .643 3.072c1.036.678 2.393.357 3.072-.643Zm-2.786-1.822c.321-.5 1.035-.643 1.535-.321.5.321.643 1.035.322 1.536-.322.5-1.036.642-1.536.321s-.643-1.036-.321-1.536Z" fill="#01817d" fill-rule="evenodd" data-name="Path 63010"/></g></g></g></g><path d="M-21267.369-3854.8h128.9v1h-128.9v-1z" fill="#01817d" fill-rule="evenodd" data-name="Rectangle 163697"/></g></svg>